<svg width="300" height="300" viewBox="0 0 300 300" fill="none" xmlns="http://www.w3.org/2000/svg">
<path d="M221.58 222.82C228.67 223.18 233.94 225.37 237.4 229.37C240.85 233.37 242.58 240.1 242.58 249.55C242.58 260.46 239.67 267.96 233.85 272.05C228.03 276.14 219.84 278.19 209.3 278.19C198.76 278.19 188.8 276.69 179.44 273.69C170.07 270.69 162.8 267.46 157.62 264.01C152.44 260.55 147.84 256.74 143.84 252.56C141.11 249.83 138.61 246.33 136.34 242.06C134.06 237.79 132.11 232.83 130.48 227.2C128.84 221.56 127.84 215.75 127.48 209.75C105.29 205.57 87.34 195.48 73.61 179.48C59.88 163.48 53.02 143.03 53.02 118.11C53.02 88.4799 61.97 65.0198 79.88 47.7498C97.79 30.4798 120.83 21.8398 149.02 21.8398C177.21 21.8398 199.88 30.4798 217.61 47.7498C235.34 65.0298 244.2 88.4799 244.2 118.11C244.2 141.93 237.97 161.71 225.52 177.43C213.06 193.16 196.56 203.57 176.02 208.66C183.47 216.84 198.66 221.57 221.57 222.84L221.58 222.82Z" fill="#E86DB5"/>
<mask id="mask0_738_5046" style="mask-type:luminance" maskUnits="userSpaceOnUse" x="95" y="50" width="107" height="134">
<path d="M196.17 149.5C199.56 140.01 201.25 129.57 201.25 118.19C201.25 106.81 199.47 96.1096 195.91 86.0496C192.35 75.9996 186.5 67.4996 178.37 60.5396C170.23 53.5796 160.57 50.0996 149.38 50.0996C138.19 50.0996 128.44 53.6396 120.14 60.6996C111.83 67.7696 105.72 76.3296 101.83 86.3796C97.93 96.4296 95.98 107.09 95.98 118.35C95.98 124.76 96.66 131.05 98.02 137.23C99.37 143.42 101.49 149.32 104.37 154.96C107.25 160.59 110.73 165.51 114.8 169.7C118.86 173.9 123.86 177.27 129.8 179.8C135.73 182.34 142.26 183.61 149.38 183.61C160.91 183.61 170.74 180.3 178.88 173.67C187.02 167.04 192.78 158.98 196.17 149.49V149.5Z" fill="white"/>
</mask>
<g mask="url(#mask0_738_5046)">
<path d="M102.27 50.0996L95.98 50.2196V50.0996H102.27Z" fill="#FF9E5D"/>
<path d="M144.83 50.0996L95.98 50.9896V50.2196L102.27 50.0996H144.83Z" fill="#FF9E5E"/>
<path d="M187.4 50.0996L95.98 51.7696V50.9896L144.83 50.0996H187.4Z" fill="#FF9E5F"/>
<path d="M201.26 50.6296L95.98 52.5396V51.7696L187.4 50.0996H201.26V50.6296Z" fill="#FF9F60"/>
<path d="M201.26 51.3999L95.98 53.3099V52.5399L201.26 50.6299V51.3999Z" fill="#FF9F61"/>
<path d="M201.26 52.1694L95.98 54.0894V53.3094L201.26 51.3994V52.1694Z" fill="#FF9F62"/>
<path d="M201.26 52.9499L95.98 54.8599V54.0899L201.26 52.1699V52.9499Z" fill="#FF9F63"/>
<path d="M201.26 53.7192L95.98 55.6292V54.8592L201.26 52.9492V53.7192Z" fill="#FF9F64"/>
<path d="M201.26 54.4897L95.98 56.4097V55.6297L201.26 53.7197V54.4897Z" fill="#FF9F65"/>
<path d="M201.26 55.2693L95.98 57.1793V56.4093L201.26 54.4893V55.2693Z" fill="#FF9F66"/>
<path d="M201.26 56.0395L95.98 57.9595V57.1795L201.26 55.2695V56.0395Z" fill="#FF9F67"/>
<path d="M201.26 56.82L95.98 58.73V57.96L201.26 56.04V56.82Z" fill="#FF9F68"/>
<path d="M201.26 57.5893L95.98 59.4993V58.7293L201.26 56.8193V57.5893Z" fill="#FF9F69"/>
<path d="M201.26 58.3598L95.98 60.2798V59.4998L201.26 57.5898V58.3598Z" fill="#FF9F6A"/>
<path d="M201.26 59.1394L95.98 61.0494V60.2794L201.26 58.3594V59.1394Z" fill="#FF9F6B"/>
<path d="M201.26 59.9096L95.98 61.8297V61.0496L201.26 59.1396V59.9096Z" fill="#FF9F6C"/>
<path d="M201.26 60.6892L95.98 62.5992V61.8292L201.26 59.9092V60.6892Z" fill="#FF9F6D"/>
<path d="M201.26 61.4595L95.98 63.3695V62.5995L201.26 60.6895V61.4595Z" fill="#FF9F6E"/>
<path d="M201.26 62.23L95.98 64.15V63.37L201.26 61.46V62.23Z" fill="#FF9F6F"/>
<path d="M201.26 63.0095L95.98 64.9195V64.1495L201.26 62.2295V63.0095Z" fill="#FF9F70"/>
<path d="M201.26 63.7798L95.98 65.6998V64.9198L201.26 63.0098V63.7798Z" fill="#FF9F71"/>
<path d="M201.26 64.5593L95.98 66.4693V65.6993L201.26 63.7793V64.5593Z" fill="#FF9F72"/>
<path d="M201.26 65.3296L95.98 67.2396V66.4696L201.26 64.5596V65.3296Z" fill="#FF9F73"/>
<path d="M201.26 66.1001L95.98 68.0201V67.2401L201.26 65.3301V66.1001Z" fill="#FF9F74"/>
<path d="M201.26 66.8796L95.98 68.7896V68.0196L201.26 66.0996V66.8796Z" fill="#FF9F75"/>
<path d="M201.26 67.6499L95.98 69.5599V68.7899L201.26 66.8799V67.6499Z" fill="#FF9F76"/>
<path d="M201.26 68.4194L95.98 70.3394V69.5594L201.26 67.6494V68.4194Z" fill="#FF9F77"/>
<path d="M201.26 69.1999L95.98 71.1099V70.3399L201.26 68.4199V69.1999Z" fill="#FF9F78"/>
<path d="M201.26 69.9692L95.98 71.8892V71.1092L201.26 69.1992V69.9692Z" fill="#FF9F79"/>
<path d="M201.26 70.7497L95.98 72.6597V71.8897L201.26 69.9697V70.7497Z" fill="#FF9F7A"/>
<path d="M201.26 71.52L95.98 73.43V72.66L201.26 70.75V71.52Z" fill="#FF9F7B"/>
<path d="M201.26 72.2895L95.98 74.2095V73.4295L201.26 71.5195V72.2895Z" fill="#FF9F7C"/>
<path d="M201.26 73.07L95.98 74.98V74.21L201.26 72.29V73.07Z" fill="#FF9F7D"/>
<path d="M201.26 73.8393L95.98 75.7593V74.9793L201.26 73.0693V73.8393Z" fill="#FF9F7E"/>
<path d="M201.26 74.6199L95.98 76.5298V75.7598L201.26 73.8398V74.6199Z" fill="#FF9F7F"/>
<path d="M201.26 75.3891L95.98 77.2991V76.5291L201.26 74.6191V75.3891Z" fill="#FF9F80"/>
<path d="M201.26 76.1597L95.98 78.0797V77.2997L201.26 75.3896V76.1597Z" fill="#FF9F81"/>
<path d="M201.26 76.9392L95.98 78.8492V78.0792L201.26 76.1592V76.9392Z" fill="#FF9F82"/>
<path d="M201.26 77.7094L95.98 79.6294V78.8494L201.26 76.9395V77.7094Z" fill="#FFA083"/>
<path d="M201.26 78.49L95.98 80.4V79.63L201.26 77.71V78.49Z" fill="#FFA084"/>
<path d="M201.26 79.2593L95.98 81.1693V80.3993L201.26 78.4893V79.2593Z" fill="#FFA085"/>
<path d="M201.26 80.0298L95.98 81.9498V81.1698L201.26 79.2598V80.0298Z" fill="#FFA086"/>
<path d="M201.26 80.8093L95.98 82.7193V81.9493L201.26 80.0293V80.8093Z" fill="#FFA087"/>
<path d="M201.26 81.5796L95.98 83.4896V82.7196L201.26 80.8096V81.5796Z" fill="#FFA088"/>
<path d="M201.26 82.3501L95.98 84.2701V83.4901L201.26 81.5801V82.3501Z" fill="#FFA089"/>
<path d="M201.26 83.1296L95.98 85.0396V84.2696L201.26 82.3496V83.1296Z" fill="#FFA08A"/>
<path d="M201.26 83.8999L95.98 85.8199V85.0399L201.26 83.1299V83.8999Z" fill="#FFA08B"/>
<path d="M201.26 84.6794L95.98 86.5894V85.8194L201.26 83.8994V84.6794Z" fill="#FFA08C"/>
<path d="M201.26 85.4497L95.98 87.3597V86.5897L201.26 84.6797V85.4497Z" fill="#FFA08D"/>
<path d="M201.26 86.2192L95.98 88.1392V87.3592L201.26 85.4492V86.2192Z" fill="#FFA08E"/>
<path d="M201.26 86.9997L95.98 88.9097V88.1397L201.26 86.2197V86.9997Z" fill="#FFA08F"/>
<path d="M201.26 87.77L95.98 89.69V88.91L201.26 87V87.77Z" fill="#FFA090"/>
<path d="M201.26 88.5495L95.98 90.4595V89.6895L201.26 87.7695V88.5495Z" fill="#FFA091"/>
<path d="M201.26 89.3198L95.98 91.2298V90.4598L201.26 88.5498V89.3198Z" fill="#FFA092"/>
<path d="M201.26 90.0893L95.98 92.0093V91.2293L201.26 89.3193V90.0893Z" fill="#FFA093"/>
<path d="M201.26 90.8699L95.98 92.7798V92.0098L201.26 90.0898V90.8699Z" fill="#FFA094"/>
<path d="M201.26 91.6391L95.98 93.5591V92.7791L201.26 90.8691V91.6391Z" fill="#FFA095"/>
<path d="M201.26 92.4196L95.98 94.3297V93.5596L201.26 91.6396V92.4196Z" fill="#FFA096"/>
<path d="M201.26 93.1899L95.98 95.0999V94.3299L201.26 92.4199V93.1899Z" fill="#FFA097"/>
<path d="M201.26 93.9594L95.98 95.8794V95.0994L201.26 93.1895V93.9594Z" fill="#FFA098"/>
<path d="M201.26 94.74L95.98 96.65V95.88L201.26 93.96V94.74Z" fill="#FFA099"/>
<path d="M201.26 95.5093L95.98 97.4193V96.6493L201.26 94.7393V95.5093Z" fill="#FFA09A"/>
<path d="M201.26 96.2798L95.98 98.1998V97.4198L201.26 95.5098V96.2798Z" fill="#FFA09B"/>
<path d="M201.26 97.0593L95.98 98.9693V98.1993L201.26 96.2793V97.0593Z" fill="#FFA09C"/>
<path d="M201.26 97.8296L95.98 99.7496V98.9696L201.26 97.0596V97.8296Z" fill="#FFA09D"/>
<path d="M201.26 98.6101L95.98 100.52V99.7501L201.26 97.8301V98.6101Z" fill="#FFA09E"/>
<path d="M201.26 99.3794L95.98 101.289V100.519L201.26 98.6094V99.3794Z" fill="#FFA09F"/>
<path d="M201.26 100.15L95.98 102.07V101.29L201.26 99.3799V100.15Z" fill="#FFA0A0"/>
<path d="M201.26 100.929L95.98 102.839V102.069L201.26 100.149V100.929Z" fill="#FFA0A1"/>
<path d="M201.26 101.7L95.98 103.62V102.84L201.26 100.93V101.7Z" fill="#FFA0A2"/>
<path d="M201.26 102.479L95.98 104.389V103.619L201.26 101.699V102.479Z" fill="#FFA0A3"/>
<path d="M201.26 103.249L95.98 105.159V104.389L201.26 102.479V103.249Z" fill="#FFA0A4"/>
<path d="M201.26 104.02L95.98 105.94V105.16L201.26 103.25V104.02Z" fill="#FFA0A5"/>
<path d="M201.26 104.8L95.98 106.71V105.94L201.26 104.02V104.8Z" fill="#FFA1A7"/>
<path d="M201.26 105.57L95.98 107.49V106.71L201.26 104.8V105.57Z" fill="#FFA1A8"/>
<path d="M201.26 106.349L95.98 108.259V107.489L201.26 105.569V106.349Z" fill="#FFA1A9"/>
<path d="M201.26 107.12L95.98 109.03V108.26L201.26 106.35V107.12Z" fill="#FFA1AA"/>
<path d="M201.26 107.889L95.98 109.809V109.029L201.26 107.119V107.889Z" fill="#FFA1AB"/>
<path d="M201.26 108.67L95.98 110.58V109.81L201.26 107.89V108.67Z" fill="#FFA1AC"/>
<path d="M201.26 109.44L95.98 111.35V110.58L201.26 108.67V109.44Z" fill="#FFA1AD"/>
<path d="M201.26 110.209L95.98 112.129V111.349L201.26 109.439V110.209Z" fill="#FFA1AE"/>
<path d="M201.26 110.99L95.98 112.9V112.13L201.26 110.21V110.99Z" fill="#FFA1AF"/>
<path d="M201.26 111.759L95.98 113.679V112.899L201.26 110.989V111.759Z" fill="#FFA1B0"/>
<path d="M201.26 112.54L95.98 114.45V113.68L201.26 111.76V112.54Z" fill="#FFA1B1"/>
<path d="M201.26 113.31L95.98 115.22V114.45L201.26 112.54V113.31Z" fill="#FFA1B2"/>
<path d="M201.26 114.08L95.98 116V115.22L201.26 113.31V114.08Z" fill="#FFA1B3"/>
<path d="M201.26 114.86L95.98 116.77V116L201.26 114.08V114.86Z" fill="#FFA1B4"/>
<path d="M201.26 115.629L95.98 117.549V116.769L201.26 114.859V115.629Z" fill="#FFA1B5"/>
<path d="M201.26 116.41L95.98 118.32V117.55L201.26 115.63V116.41Z" fill="#FFA1B6"/>
<path d="M201.26 117.179L95.98 119.089V118.319L201.26 116.409V117.179Z" fill="#FFA1B7"/>
<path d="M201.26 117.95L95.98 119.87V119.09L201.26 117.18V117.95Z" fill="#FFA1B8"/>
<path d="M201.26 118.729L95.98 120.639V119.869L201.26 117.949V118.729Z" fill="#FFA1B9"/>
<path d="M201.26 119.499L95.98 121.419V120.639L201.26 118.729V119.499Z" fill="#FFA1BA"/>
<path d="M201.26 120.28L95.98 122.19V121.42L201.26 119.5V120.28Z" fill="#FFA1BB"/>
<path d="M201.26 121.049L95.98 122.959V122.189L201.26 120.279V121.049Z" fill="#FFA1BC"/>
<path d="M201.26 121.82L95.98 123.74V122.96L201.26 121.05V121.82Z" fill="#FFA1BD"/>
<path d="M201.26 122.599L95.98 124.509V123.739L201.26 121.819V122.599Z" fill="#FFA1BE"/>
<path d="M201.26 123.37L95.98 125.28V124.51L201.26 122.6V123.37Z" fill="#FFA1BF"/>
<path d="M201.26 124.139L95.98 126.059V125.279L201.26 123.369V124.139Z" fill="#FFA1C0"/>
<path d="M201.26 124.92L95.98 126.83V126.06L201.26 124.14V124.92Z" fill="#FFA1C1"/>
<path d="M201.26 125.69L95.98 127.61V126.83L201.26 124.92V125.69Z" fill="#FFA1C2"/>
<path d="M201.26 126.469L95.98 128.379V127.609L201.26 125.689V126.469Z" fill="#FFA1C3"/>
<path d="M201.26 127.24L95.98 129.15V128.38L201.26 126.47V127.24Z" fill="#FFA1C4"/>
<path d="M201.26 128.009L95.98 129.929V129.149L201.26 127.239V128.009Z" fill="#FFA1C5"/>
<path d="M201.26 128.79L95.98 130.7V129.93L201.26 128.01V128.79Z" fill="#FFA1C6"/>
<path d="M201.26 129.56L95.98 131.48V130.7L201.26 128.79V129.56Z" fill="#FFA1C7"/>
<path d="M201.26 130.34L95.98 132.25V131.48L201.26 129.56V130.34Z" fill="#FFA1C8"/>
<path d="M201.26 131.11L95.98 133.02V132.25L201.26 130.34V131.11Z" fill="#FFA1C9"/>
<path d="M201.26 131.879L95.98 133.799V133.019L201.26 131.109V131.879Z" fill="#FFA1CA"/>
<path d="M201.26 132.66L95.98 134.57V133.8L201.26 131.88V132.66Z" fill="#FFA2CB"/>
<path d="M201.26 133.429L95.98 135.349V134.569L201.26 132.659V133.429Z" fill="#FFA2CC"/>
<path d="M201.26 134.21L95.98 136.12V135.35L201.26 133.43V134.21Z" fill="#FFA2CD"/>
<path d="M201.26 134.98L95.98 136.89V136.12L201.26 134.21V134.98Z" fill="#FFA2CE"/>
<path d="M201.26 135.749L95.98 137.669V136.889L201.26 134.979V135.749Z" fill="#FFA2CF"/>
<path d="M201.26 136.53L95.98 138.44V137.67L201.26 135.75V136.53Z" fill="#FFA2D0"/>
<path d="M201.26 137.299L95.98 139.209V138.439L201.26 136.529V137.299Z" fill="#FFA2D1"/>
<path d="M201.26 138.07L95.98 139.99V139.21L201.26 137.3V138.07Z" fill="#FFA2D2"/>
<path d="M201.26 138.849L95.98 140.759V139.989L201.26 138.069V138.849Z" fill="#FFA2D3"/>
<path d="M201.26 139.62L95.98 141.54V140.76L201.26 138.85V139.62Z" fill="#FFA2D4"/>
<path d="M201.26 140.399L95.98 142.309V141.539L201.26 139.619V140.399Z" fill="#FFA2D5"/>
<path d="M201.26 141.169L95.98 143.079V142.309L201.26 140.399V141.169Z" fill="#FFA2D6"/>
<path d="M201.26 141.94L95.98 143.86V143.08L201.26 141.17V141.94Z" fill="#FFA2D7"/>
<path d="M201.26 142.719L95.98 144.629V143.859L201.26 141.939V142.719Z" fill="#FFA2D8"/>
<path d="M201.26 143.49L95.98 145.41V144.63L201.26 142.72V143.49Z" fill="#FFA2D9"/>
<path d="M201.26 144.269L95.98 146.179V145.409L201.26 143.489V144.269Z" fill="#FFA2DA"/>
<path d="M201.26 145.04L95.98 146.95V146.18L201.26 144.27V145.04Z" fill="#FFA2DB"/>
<path d="M201.26 145.81L95.98 147.73V146.95L201.26 145.04V145.81Z" fill="#FFA2DC"/>
<path d="M201.26 146.59L95.98 148.5V147.73L201.26 145.81V146.59Z" fill="#FFA2DD"/>
<path d="M201.26 147.36L95.98 149.28V148.5L201.26 146.59V147.36Z" fill="#FFA2DE"/>
<path d="M201.26 148.139L95.98 150.049V149.279L201.26 147.359V148.139Z" fill="#FFA2DF"/>
<path d="M201.26 148.91L95.98 150.82V150.05L201.26 148.14V148.91Z" fill="#FFA2E0"/>
<path d="M201.26 149.679L95.98 151.599V150.819L201.26 148.909V149.679Z" fill="#FFA2E1"/>
<path d="M201.26 150.46L95.98 152.37V151.6L201.26 149.68V150.46Z" fill="#FFA2E2"/>
<path d="M201.26 151.23L95.98 153.14V152.37L201.26 150.46V151.23Z" fill="#FFA2E3"/>
<path d="M201.26 151.999L95.98 153.919V153.139L201.26 151.229V151.999Z" fill="#FFA2E4"/>
<path d="M201.26 152.78L95.98 154.69V153.92L201.26 152V152.78Z" fill="#FFA2E5"/>
<path d="M201.26 153.549L95.98 155.469V154.689L201.26 152.779V153.549Z" fill="#FFA2E6"/>
<path d="M201.26 154.33L95.98 156.24V155.47L201.26 153.55V154.33Z" fill="#FFA2E7"/>
<path d="M201.26 155.1L95.98 157.01V156.24L201.26 154.33V155.1Z" fill="#FFA2E8"/>
<path d="M201.26 155.87L95.98 157.79V157.01L201.26 155.1V155.87Z" fill="#FFA2E9"/>
<path d="M201.26 156.649L95.98 158.559V157.789L201.26 155.869V156.649Z" fill="#FFA2EA"/>
<path d="M201.26 157.419L95.98 159.339V158.559L201.26 156.649V157.419Z" fill="#FFA2EB"/>
<path d="M201.26 158.2L95.98 160.11V159.34L201.26 157.42V158.2Z" fill="#FFA2EC"/>
<path d="M201.26 158.969L95.98 160.879V160.109L201.26 158.199V158.969Z" fill="#FFA2ED"/>
<path d="M201.26 159.74L95.98 161.66V160.88L201.26 158.97V159.74Z" fill="#FFA3EE"/>
<path d="M201.26 160.519L95.98 162.429V161.659L201.26 159.739V160.519Z" fill="#FFA3EF"/>
<path d="M201.26 161.29L95.98 163.21V162.43L201.26 160.52V161.29Z" fill="#FFA3F0"/>
<path d="M201.26 162.07L95.98 163.98V163.21L201.26 161.29V162.07Z" fill="#FFA3F1"/>
<path d="M201.26 162.839L95.98 164.749V163.979L201.26 162.069V162.839Z" fill="#FFA3F2"/>
<path d="M201.26 163.61L95.98 165.53V164.75L201.26 162.84V163.61Z" fill="#FFA3F3"/>
<path d="M201.26 164.389L95.98 166.299V165.529L201.26 163.609V164.389Z" fill="#FFA3F4"/>
<path d="M201.26 165.16L95.98 167.07V166.3L201.26 164.39V165.16Z" fill="#FFA3F5"/>
<path d="M201.26 165.929L95.98 167.849V167.069L201.26 165.159V165.929Z" fill="#FFA3F6"/>
<path d="M201.26 166.71L95.98 168.62V167.85L201.26 165.93V166.71Z" fill="#FFA3F7"/>
<path d="M201.26 167.48L95.98 169.4V168.62L201.26 166.71V167.48Z" fill="#FFA3F8"/>
<path d="M201.26 168.259L95.98 170.169V169.399L201.26 167.479V168.259Z" fill="#FFA3F9"/>
<path d="M201.26 169.03L95.98 170.94V170.17L201.26 168.26V169.03Z" fill="#FFA3FA"/>
<path d="M201.26 169.799L95.98 171.719V170.939L201.26 169.029V169.799Z" fill="#FFA3FB"/>
<path d="M201.26 170.58L95.98 172.49V171.72L201.26 169.8V170.58Z" fill="#FFA3FC"/>
<path d="M201.26 171.35L95.98 173.27V172.49L201.26 170.58V171.35Z" fill="#FFA3FD"/>
<path d="M201.26 172.13L95.98 174.04V173.27L201.26 171.35V172.13Z" fill="#FFA3FE"/>
<path d="M201.26 172.9L95.98 174.81V174.04L201.26 172.13V172.9Z" fill="#FFA3FF"/>
<path d="M95.98 174.809L201.26 172.899V183.619H95.98V174.809Z" fill="#FFA3FF"/>
</g>
<path d="M115.62 109.92C118.757 109.92 121.3 107.27 121.3 104C121.3 100.731 118.757 98.0801 115.62 98.0801C112.483 98.0801 109.94 100.731 109.94 104C109.94 107.27 112.483 109.92 115.62 109.92Z" fill="black"/>
<path d="M164.28 106.08C167.417 106.08 169.96 103.43 169.96 100.16C169.96 96.8907 167.417 94.2402 164.28 94.2402C161.143 94.2402 158.6 96.8907 158.6 100.16C158.6 103.43 161.143 106.08 164.28 106.08Z" fill="black"/>
<path d="M134.82 128.27C116.24 128.27 103.77 122.97 102.89 122.58C101.32 121.89 100.6 120.06 101.29 118.48C101.98 116.91 103.81 116.19 105.38 116.88C105.73 117.03 140.6 131.72 180.45 110.2C181.96 109.38 183.85 109.95 184.67 111.46C185.49 112.97 184.92 114.86 183.41 115.68C165.38 125.42 148.45 128.27 134.82 128.27Z" fill="black"/>
<path d="M67.89 201.98L74.49 223.25C74.68 223.85 75.15 224.32 75.75 224.51L97.02 231.11C98.81 231.67 98.81 234.2 97.02 234.76L75.75 241.36C75.15 241.55 74.68 242.02 74.49 242.62L67.89 263.89C67.33 265.68 64.8 265.68 64.24 263.89L57.64 242.62C57.45 242.02 56.98 241.55 56.38 241.36L35.11 234.76C33.32 234.2 33.32 231.67 35.11 231.11L56.38 224.51C56.98 224.32 57.45 223.85 57.64 223.25L64.24 201.98C64.8 200.19 67.33 200.19 67.89 201.98Z" fill="#6DC4CB"/>
<path d="M247.54 173.97L251.59 187.01C251.7 187.38 251.99 187.67 252.36 187.78L265.4 191.83C266.5 192.17 266.5 193.73 265.4 194.07L252.36 198.12C251.99 198.23 251.7 198.52 251.59 198.89L247.54 211.93C247.2 213.03 245.64 213.03 245.3 211.93L241.25 198.89C241.14 198.52 240.85 198.23 240.48 198.12L227.44 194.07C226.34 193.73 226.34 192.17 227.44 191.83L240.48 187.78C240.85 187.67 241.14 187.38 241.25 187.01L245.3 173.97C245.64 172.87 247.2 172.87 247.54 173.97Z" fill="#79B76A"/>
</svg>
